<svg xmlns="http://www.w3.org/2000/svg" viewBox="0 0 256 256">
  <rect width="256" height="256" fill="none"/>
  <!-- Circle Background -->
  <circle cx="128" cy="128" r="120" fill="#2b6cb0"/>
  <!-- Wrench and Water Drop combined icon -->
  <!-- Wrench Handle -->
  <path d="M102.3,168.3l-44.5,44.5a15.9,15.9,0,0,1-22.6-22.6l44.5-44.5" fill="none" stroke="#ffffff" stroke-linecap="round" stroke-linejoin="round" stroke-width="20"/>
  <!-- Wrench Head -->
  <path d="M141.2,129.2A48,48,0,0,0,73.3,61.3L89.7,77.7a16,16,0,0,1,22.6,22.6L128.7,116.7A48.1,48.1,0,0,0,141.2,129.2Z" fill="#ffffff"/>
  <path d="M128.7,116.7a16,16,0,0,0-22.6-22.6L89.7,77.7" fill="none" stroke="#ffffff" stroke-linecap="round" stroke-linejoin="round" stroke-width="20"/>
  <path d="M141.2,129.2A48,48,0,0,0,73.3,61.3" fill="none" stroke="#ffffff" stroke-linecap="round" stroke-linejoin="round" stroke-width="20"/>
  <!-- Water Drop -->
  <path d="M176,192a32,32,0,0,1-32-32c0-21.3,32-64,32-64s32,42.7,32,64A32,32,0,0,1,176,192Z" fill="#4299e1" stroke="#ffffff" stroke-linejoin="round" stroke-width="12"/>
</svg>
